<?xml version="1.0" encoding="utf-8"?>
<!-- Generator: Adobe Illustrator 18.1.1, SVG Export Plug-In . SVG Version: 6.00 Build 0)  -->
<!DOCTYPE svg PUBLIC "-//W3C//DTD SVG 1.1//EN" "http://www.w3.org/Graphics/SVG/1.1/DTD/svg11.dtd">
<svg version="1.1" id="Layer_1" xmlns="http://www.w3.org/2000/svg" xmlns:xlink="http://www.w3.org/1999/xlink" x="0px" y="0px"
	 viewBox="0 0 1200 893" enable-background="new 0 0 1200 893" xml:space="preserve">
<polygon opacity="0.13" fill="#FFFFFF" enable-background="new    " points="6.9,877.2 9.1,878.4 11.4,877.3 10.9,879.7 12.5,881.5 
	10.2,881.8 8.9,884 7.8,881.6 5.3,881.3 7.3,879.7 "/>
<polygon opacity="0.5" fill="#FFFFFF" enable-background="new    " points="587.7,855.7 589.9,856.9 592.2,855.8 591.7,858.2 
	593.3,860 591,860.3 589.7,862.5 588.6,860.1 586.1,859.8 588.1,858.2 "/>
<polygon opacity="0.13" fill="#FFFFFF" enable-background="new    " points="781.6,874.2 783.8,875.4 786.1,874.3 785.6,876.7 
	787.2,878.5 784.8,878.8 783.6,881 782.5,878.6 780,878.3 782,876.7 "/>
<g>
	<polygon opacity="0.1" fill="#FFFFFF" enable-background="new    " points="815.7,808.3 819.5,810.5 823.3,808.7 822.4,812.8 
		825.3,815.9 821.1,816.4 819,820 817.4,816.2 813.2,815.5 816.3,812.6 	"/>
	<polygon opacity="0.15" fill="#FFFFFF" enable-background="new    " points="511,718.7 514.8,720.9 518.5,719.1 517.6,723.2 
		520.5,726.2 516.4,726.8 514.2,730.4 512.6,726.6 508.5,725.9 511.6,723 	"/>
	<polygon opacity="0.2" fill="#FFFFFF" enable-background="new    " points="731.1,672.8 733.3,674.1 735.6,673 735.1,675.3 
		736.7,677.1 734.4,677.5 733.1,679.6 732,677.3 729.5,676.9 731.5,675.3 	"/>
	<polygon opacity="0.25" fill="#FFFFFF" enable-background="new    " points="765.2,597.5 767.4,598.8 769.7,597.7 769.1,600 
		770.8,601.8 768.4,602.2 767.2,604.3 766.1,602 763.6,601.6 765.6,600 	"/>
	<polygon opacity="0.15" fill="#FFFFFF" enable-background="new    " points="800,351.9 803.2,353.9 806.6,352.3 805.9,355.9 
		808.4,358.6 804.8,358.9 803,362.3 801.4,358.9 797.6,358.2 800.5,355.7 	"/>
	<polygon opacity="0.25" fill="#FFFFFF" enable-background="new    " points="168.3,500.7 170.4,502 172.8,500.9 172.2,503.2 
		173.8,505 171.5,505.4 170.3,507.5 169.2,505.2 166.7,504.9 168.6,503.2 	"/>
	<polygon opacity="0.2" fill="#FFFFFF" enable-background="new    " points="62,632.5 64.7,634.1 67.5,632.7 66.8,635.7 69,638 
		65.9,638.4 64.5,641.1 63.2,638.2 60,637.7 62.3,635.5 	"/>
	<polygon opacity="0.4" fill="#FFFFFF" enable-background="new    " points="50.5,616.2 52.1,617.2 53.7,616.3 53.4,618.1 
		54.6,619.6 52.8,619.8 51.9,621.4 51.2,619.8 49.3,619.4 50.7,618.1 	"/>
	<polygon opacity="0.15" fill="#FFFFFF" enable-background="new    " points="283,395 285.2,396.2 287.5,395.1 286.9,397.5 
		288.6,399.3 286.2,399.6 285,401.8 283.9,399.4 281.4,399.1 283.4,397.5 	"/>
	<polygon opacity="0.3" fill="#FFFFFF" enable-background="new    " points="761.6,235.4 763.8,236.7 766.1,235.6 765.6,237.9 
		767.2,239.7 764.8,240.1 763.6,242.2 762.5,239.9 760,239.6 762,237.9 	"/>
	<polygon opacity="0.6" fill="#FFFFFF" enable-background="new    " points="121.7,307.1 123.8,308.4 126.2,307.3 125.6,309.6 
		127.2,311.4 124.9,311.8 123.6,313.9 122.6,311.6 120.1,311.3 122,309.6 	"/>
	<polygon opacity="0.13" fill="#FFFFFF" enable-background="new    " points="62.5,161.9 64.7,163.2 67,162.1 66.5,164.4 
		68.1,166.2 65.7,166.6 64.5,168.7 63.4,166.4 60.9,166.1 62.9,164.4 	"/>
	<polygon opacity="0.15" fill="#FFFFFF" enable-background="new    " points="148.6,14.9 150.7,16.2 153,15.1 152.5,17.5 
		154.1,19.2 151.8,19.6 150.5,21.8 149.5,19.4 146.9,19.1 148.9,17.5 	"/>
	<polygon opacity="0.25" fill="#FFFFFF" enable-background="new    " points="270.6,110.8 274.6,113 278.5,111.2 277.6,115.5 
		280.5,118.7 276.2,119.1 274,123 272.4,118.9 267.9,118.2 271.4,115.1 	"/>
	<polygon opacity="0.5" fill="#FFFFFF" enable-background="new    " points="171.9,775 174,776.2 176.3,775.2 175.8,777.5 
		177.4,779.3 175.1,779.6 173.8,781.8 172.8,779.5 170.3,779.1 172.2,777.5 	"/>
	<polygon opacity="0.13" fill="#FFFFFF" enable-background="new    " points="474.8,402.1 477,403.4 479.3,402.3 478.7,404.6 
		480.4,406.4 478,406.8 476.8,408.9 475.7,406.6 473.2,406.3 475.2,404.6 	"/>
	<polygon opacity="0.1" fill="#FFFFFF" enable-background="new    " points="494.7,421 498.6,423.1 502.6,421.3 501.7,425.6 
		504.6,428.8 500.3,429.2 498.1,433.1 496.5,429 492,428.3 495.4,425.3 	"/>
	<polygon opacity="0.1" fill="#FFFFFF" enable-background="new    " points="410.5,291.9 414.4,294 418.3,292.3 417.4,296.6 
		420.3,299.8 416,300.1 413.9,304.1 412.2,300 407.8,299.2 411.2,296.2 	"/>
	<polygon opacity="0.6" fill="#FFFFFF" enable-background="new    " points="646.9,454.1 649,455.4 651.4,454.3 650.8,456.6 
		652.4,458.4 650.1,458.8 648.9,460.9 647.8,458.6 645.3,458.2 647.2,456.6 	"/>
	<polygon opacity="0.1" fill="#FFFFFF" enable-background="new    " points="847.8,21.2 851.8,23.4 855.7,21.6 854.8,25.9 
		857.7,29.1 853.4,29.5 851.2,33.4 849.6,29.3 845.1,28.6 848.6,25.5 	"/>
	<polygon opacity="0.13" fill="#FFFFFF" enable-background="new    " points="609.2,169.1 611.4,170.4 613.7,169.3 613.2,171.6 
		614.8,173.4 612.5,173.8 611.2,175.9 610.1,173.6 607.6,173.2 609.6,171.6 	"/>
	<polygon opacity="0.6" fill="#FFFFFF" enable-background="new    " points="664.8,135 667,136.3 669.3,135.2 668.8,137.6 
		670.4,139.3 668,139.7 666.8,141.9 665.7,139.5 663.2,139.2 665.2,137.6 	"/>
	<polygon opacity="0.18" fill="#FFFFFF" enable-background="new    " points="458.7,27.5 460.8,28.7 463.2,27.7 462.6,30 
		464.2,31.8 461.9,32.2 460.6,34.3 459.6,32 457.1,31.6 459,30 	"/>
	<polygon opacity="0.4" fill="#FFFFFF" enable-background="new    " points="385.2,583.2 387.3,584.4 389.7,583.4 389.1,585.7 
		390.7,587.5 388.4,587.8 387.1,590 386.1,587.7 383.6,587.3 385.5,585.7 	"/>
	<polygon opacity="0.25" fill="#FFFFFF" enable-background="new    " points="335,816.2 337.1,817.5 339.5,816.4 338.9,818.7 
		340.5,820.5 338.2,820.9 337,823 335.9,820.7 333.4,820.3 335.3,818.7 	"/>
	<polygon opacity="0.13" fill="#FFFFFF" enable-background="new    " points="318.1,830.4 319.2,831.1 320.3,830.6 320.1,831.8 
		320.8,832.7 319.7,832.7 319,834 318.5,832.7 317.2,832.5 318.3,831.6 	"/>
	<polygon opacity="0.25" fill="#FFFFFF" enable-background="new    " points="942.9,497.7 945.1,499 947.4,497.9 946.9,500.2 
		948.5,502 946.2,502.4 944.9,504.5 943.8,502.2 941.3,501.9 943.3,500.2 	"/>
	<polygon opacity="0.2" fill="#FFFFFF" enable-background="new    " points="836.6,629.5 839.3,631.1 842.2,629.7 841.5,632.7 
		843.6,635 840.6,635.4 839.2,638.1 837.9,635.2 834.7,634.7 837,632.5 	"/>
	<polygon opacity="0.4" fill="#FFFFFF" enable-background="new    " points="825.2,613.2 826.8,614.2 828.4,613.3 828,615.1 
		829.3,616.6 827.5,616.8 826.6,618.4 825.9,616.8 823.9,616.4 825.4,615.1 	"/>
	<polygon opacity="0.15" fill="#FFFFFF" enable-background="new    " points="1057.7,392 1059.8,393.2 1062.1,392.1 1061.6,394.5 
		1063.2,396.3 1060.9,396.6 1059.6,398.8 1058.6,396.4 1056.1,396.1 1058,394.5 	"/>
	<polygon opacity="0.6" fill="#FFFFFF" enable-background="new    " points="896.3,304.1 898.5,305.4 900.8,304.3 900.3,306.6 
		901.9,308.4 899.6,308.8 898.3,310.9 897.2,308.6 894.7,308.3 896.7,306.6 	"/>
	<polygon opacity="0.13" fill="#FFFFFF" enable-background="new    " points="837.2,158.9 839.3,160.2 841.7,159.1 841.1,161.4 
		842.7,163.2 840.4,163.6 839.2,165.7 838.1,163.4 835.6,163.1 837.5,161.4 	"/>
	<polygon opacity="0.15" fill="#FFFFFF" enable-background="new    " points="923.2,11.9 925.4,13.2 927.7,12.1 927.2,14.5 
		928.8,16.2 926.5,16.6 925.2,18.8 924.1,16.4 921.6,16.1 923.6,14.5 	"/>
	<polygon opacity="0.25" fill="#FFFFFF" enable-background="new    " points="1045.3,107.8 1049.2,110 1053.2,108.2 1052.3,112.5 
		1055.2,115.7 1050.9,116.1 1048.7,120 1047.1,115.9 1042.6,115.2 1046,112.1 	"/>
	<polygon opacity="0.5" fill="#FFFFFF" enable-background="new    " points="946.5,772 948.7,773.2 951,772.2 950.5,774.5 
		952.1,776.3 949.8,776.6 948.5,778.8 947.4,776.5 944.9,776.1 946.9,774.5 	"/>
	<polygon opacity="0.1" fill="#FFFFFF" enable-background="new    " points="1185.1,288.9 1189.1,291 1193,289.3 1192.1,293.6 
		1195,296.8 1190.7,297.1 1188.5,301.1 1186.9,297 1182.4,296.2 1185.8,293.2 	"/>
	<polygon opacity="0.4" fill="#FFFFFF" enable-background="new    " points="1159.8,580.2 1162,581.4 1164.3,580.4 1163.8,582.7 
		1165.4,584.5 1163.1,584.8 1161.8,587 1160.7,584.7 1158.2,584.3 1160.2,582.7 	"/>
	<polygon opacity="0.25" fill="#FFFFFF" enable-background="new    " points="1109.7,813.2 1111.8,814.5 1114.1,813.4 1113.6,815.7 
		1115.2,817.5 1112.9,817.9 1111.6,820 1110.5,817.7 1108,817.3 1110,815.7 	"/>
	<polygon opacity="0.13" fill="#FFFFFF" enable-background="new    " points="1092.8,827.4 1093.9,828.1 1095,827.6 1094.8,828.8 
		1095.5,829.7 1094.4,829.7 1093.7,831 1093.2,829.7 1091.9,829.5 1093,828.6 	"/>
</g>
</svg>
